<?xml version="1.0" standalone="no"?>
<!DOCTYPE svg PUBLIC "-//W3C//DTD SVG 20010904//EN"
 "http://www.w3.org/TR/2001/REC-SVG-20010904/DTD/svg10.dtd">
<!-- <svg version="1.0" xmlns="http://www.w3.org/2000/svg"
 width="564.000000pt" height="564.000000pt" viewBox="0 0 564.000000 564.000000"
 preserveAspectRatio="xMidYMid meet"> -->
 <svg version="1.0" xmlns="http://www.w3.org/2000/svg"
 width="350.000000pt" height="564.000000pt" viewBox="0 248 564.000000 564.000000"
 preserveAspectRatio="xMidYMid meet">

<!-- <g transform="translate(0.000000,564.000000) scale(0.100000,-0.100000)"
fill="#FFFFFF" stroke="none"> -->
<g transform="translate(0.000000,564.000000) scale(0.100000,-0.100000)"
fill="#819cfc" stroke="none">
<path d="M2556 4884 c-7 -17 23 -85 56 -126 15 -19 21 -39 20 -68 -1 -23 5
-51 13 -63 11 -15 12 -24 3 -34 -6 -7 -8 -16 -4 -20 3 -3 6 -1 6 5 0 18 28 14
40 -5 9 -15 10 -14 4 6 -4 16 -3 21 5 17 7 -5 9 -1 5 8 -3 9 -2 16 4 16 7 0 6
10 -1 30 -6 16 -8 32 -5 36 10 10 55 -40 50 -55 -3 -8 0 -11 7 -7 7 5 11 -2
11 -18 0 -14 4 -26 9 -26 5 0 14 -13 19 -29 7 -20 16 -29 29 -26 10 1 16 9 14
16 -2 8 -3 26 -2 42 1 16 -5 30 -13 33 -8 3 -17 20 -20 37 -7 35 -38 77 -56
77 -6 0 -16 14 -21 30 -6 17 -17 30 -25 30 -8 0 -14 5 -14 11 0 17 -97 99
-117 99 -6 0 -14 -7 -17 -16z"/>
<path d="M2138 4638 c-16 -30 -12 -121 7 -158 8 -16 15 -38 15 -50 0 -11 5
-20 10 -20 6 0 10 -7 10 -16 0 -8 5 -12 10 -9 6 3 10 -1 10 -9 0 -9 5 -16 11
-16 6 0 9 -6 6 -14 -3 -8 3 -26 14 -39 10 -14 19 -30 19 -35 0 -18 22 -25 31
-11 6 10 9 8 9 -8 0 -25 -25 -43 -60 -43 -18 0 -32 -40 -19 -56 11 -14 10 -15
-13 -18 -15 -2 -12 -54 4 -73 12 -15 42 -18 33 -3 -3 6 1 10 9 10 9 0 16 5 16
11 0 6 -7 9 -15 5 -12 -4 -13 -2 -3 14 9 14 9 22 -1 34 -10 12 -11 16 -1 16 7
0 10 7 6 15 -3 8 -1 15 4 15 6 0 10 -7 10 -15 0 -22 13 -18 34 10 27 36 49 33
44 -6 -4 -25 -1 -33 13 -36 11 -3 16 -10 12 -15 -3 -6 0 -8 8 -6 8 3 13 14 12
24 -1 18 -1 18 13 0 12 -17 14 -18 14 -3 0 14 10 17 50 18 28 1 55 3 60 4 6 1
15 3 20 4 6 0 10 7 10 15 0 9 7 12 20 9 11 -3 20 0 20 6 0 6 -4 11 -8 11 -4 0
-8 9 -9 20 -1 14 6 22 23 26 20 5 23 11 18 28 -16 51 -24 65 -44 76 -30 16
-19 36 17 32 23 -2 35 3 47 20 9 13 19 22 21 21 16 -8 56 -1 69 13 10 10 16
11 16 3 0 -8 4 -8 13 -1 6 5 23 7 37 4 22 -4 54 -5 112 -2 10 1 20 6 23 11 4
5 12 6 18 2 7 -4 14 -8 17 -9 31 -6 75 -22 124 -46 33 -15 70 -28 83 -28 13 0
23 -4 23 -8 0 -4 15 -16 33 -27 17 -10 34 -21 37 -25 10 -13 73 -40 81 -34 5
3 9 0 9 -6 0 -7 7 -10 15 -7 8 4 17 2 20 -4 4 -5 10 -7 15 -4 5 3 11 1 15 -5
3 -5 14 -10 24 -10 21 0 43 -66 34 -100 -3 -12 0 -20 7 -20 9 0 10 -3 1 -13
-6 -8 -8 -17 -4 -20 3 -4 8 -46 10 -94 2 -49 5 -92 5 -98 0 -5 -7 -35 -15 -65
-9 -30 -18 -66 -21 -80 -11 -60 -32 -126 -45 -140 -8 -8 -26 -16 -40 -17 -14
-1 -42 -3 -61 -6 -19 -2 -41 0 -47 6 -7 5 -13 7 -13 4 0 -3 -21 0 -47 8 -47
13 -86 18 -131 16 -21 -1 -23 -4 -17 -33 4 -18 11 -35 14 -38 12 -8 22 -42 11
-35 -6 3 -10 0 -10 -7 0 -9 -3 -9 -10 2 -8 13 -10 13 -10 -2 0 -9 7 -21 16
-26 11 -6 15 -17 11 -31 -3 -11 -1 -21 4 -21 5 0 9 -8 9 -19 0 -10 7 -24 15
-31 8 -6 26 -32 40 -57 17 -29 32 -43 41 -39 9 4 14 -2 14 -15 0 -11 5 -17 10
-14 6 3 10 -1 10 -10 0 -11 5 -15 15 -11 9 3 20 -4 27 -17 7 -13 22 -23 33
-23 11 0 19 -5 18 -11 -2 -6 14 -17 35 -24 44 -14 58 -24 43 -33 -6 -4 -11
-16 -11 -26 0 -10 -9 -35 -21 -54 -11 -19 -18 -40 -15 -45 3 -5 -1 -12 -10
-15 -11 -4 -14 -14 -11 -27 4 -16 2 -19 -14 -14 -13 4 -19 2 -19 -9 0 -8 -14
-24 -30 -36 -17 -12 -29 -29 -28 -38 2 -10 -3 -16 -10 -14 -18 3 -6 -15 18
-28 13 -7 21 -7 26 2 5 7 3 8 -7 3 -8 -5 -11 -4 -6 1 5 5 16 9 25 9 9 0 16 5
15 12 -1 6 11 17 27 25 28 12 40 28 22 28 -5 0 -17 7 -28 16 -19 15 -18 15 3
9 12 -3 24 -1 28 5 3 6 10 8 15 5 8 -5 23 31 21 50 -1 6 4 3 11 -6 21 -26 38
-12 27 23 -4 17 -6 28 -3 25 9 -9 31 16 31 36 0 9 -6 17 -13 17 -6 0 -14 6
-17 13 -5 15 34 19 44 4 3 -5 9 -1 12 8 4 10 3 14 -4 9 -8 -4 -9 1 -4 15 4 14
2 21 -6 21 -7 0 -9 3 -6 7 13 12 -15 33 -44 33 -15 0 -31 5 -34 10 -3 6 -16
10 -27 10 -12 0 -18 3 -15 6 8 8 -71 84 -87 84 -7 0 -12 10 -13 22 -1 12 -12
32 -25 44 -35 35 -50 54 -41 54 4 0 2 5 -5 12 -7 7 -12 23 -12 36 0 13 -4 31
-9 41 -6 10 -8 27 -5 39 7 23 36 22 84 -3 15 -8 29 -12 32 -10 2 3 18 1 36 -4
21 -7 32 -6 36 2 3 8 5 7 5 -2 1 -11 4 -11 16 -1 8 7 15 8 15 3 0 -9 34 -11
50 -3 3 1 20 1 39 0 22 -1 31 2 27 9 -4 6 -3 11 3 11 5 0 13 -4 16 -10 9 -14
45 -12 43 3 -2 6 4 10 12 8 33 -8 44 -5 54 14 12 23 52 27 65 6 6 -9 10 -10
16 -2 4 7 16 9 27 5 12 -3 18 -2 15 3 -4 6 0 18 7 28 11 15 18 16 43 7 24 -8
34 -7 44 3 8 8 21 15 29 17 21 4 38 21 34 33 -2 5 12 19 33 30 38 21 55 61 31
77 -10 6 -10 8 0 8 7 0 10 5 7 10 -3 6 -2 10 4 10 5 0 13 -5 16 -11 5 -7 14
-3 26 10 15 16 17 25 9 40 -8 15 -6 24 7 37 10 9 16 28 15 41 -2 12 4 30 12
39 10 9 14 26 12 40 -3 14 0 36 6 50 13 29 4 42 -17 24 -21 -17 -21 6 0 27 8
8 13 19 10 24 -3 4 -8 25 -10 44 -5 40 -39 106 -70 140 -23 25 -71 51 -90 48
-11 -1 -42 -4 -68 -7 -27 -3 -61 -12 -76 -19 -16 -8 -42 -12 -60 -9 -20 3 -31
0 -31 -8 0 -7 -8 -9 -20 -5 -12 4 -28 1 -36 -6 -8 -6 -17 -9 -20 -6 -3 3 -19
0 -36 -7 -26 -11 -35 -11 -62 3 -34 17 -43 19 -96 24 -42 4 -110 32 -110 45 0
11 -37 25 -57 23 -7 -1 -13 2 -13 7 0 5 -8 12 -17 16 -10 3 -25 10 -33 15 -8
6 -33 18 -55 28 -22 9 -46 23 -53 30 -7 7 -25 14 -40 15 -15 1 -38 3 -52 4
-14 1 -35 3 -47 3 -13 1 -23 7 -23 16 0 8 -4 15 -10 15 -5 0 -10 -5 -10 -11 0
-6 -9 -9 -20 -6 -11 3 -23 1 -26 -4 -3 -5 -19 -9 -35 -9 -17 0 -32 -6 -35 -15
-5 -12 -10 -13 -20 -4 -10 8 -22 8 -42 1 l-29 -10 7 40 c6 32 5 38 -7 34 -8
-3 -17 -6 -19 -6 -2 0 -1 -12 2 -26 7 -27 -13 -77 -27 -68 -4 2 -24 -2 -44
-10 -31 -13 -35 -19 -30 -43 5 -25 5 -26 -4 -5 -12 26 -29 28 -57 7 -22 -16
-74 -20 -74 -5 0 6 -6 10 -12 10 -20 1 -55 34 -60 56 -2 10 -10 19 -18 19 -8
0 -14 8 -14 17 1 9 -13 33 -31 52 -18 20 -36 48 -39 62 -4 14 -16 28 -26 31
-11 3 -20 9 -20 14 0 18 -30 8 -42 -13z m112 -171 c17 -17 30 -37 30 -44 0 -7
9 -17 19 -23 16 -8 20 -6 24 8 4 13 5 12 6 -5 0 -13 13 -30 29 -40 30 -19 62
-49 62 -58 0 -3 -4 -3 -10 0 -5 3 -10 -1 -10 -9 0 -23 18 -19 25 5 6 19 12 20
48 15 22 -4 44 -9 49 -12 14 -9 9 -51 -9 -72 -23 -26 -73 -57 -73 -45 0 5 -14
17 -31 27 -30 17 -31 21 -27 67 3 27 3 49 0 49 -3 0 -18 -12 -34 -27 -27 -25
-28 -26 -47 -9 -11 10 -21 34 -23 55 -2 26 -7 36 -20 35 -11 -1 -14 4 -11 14
5 10 2 13 -6 8 -8 -5 -12 -3 -10 5 3 23 -13 79 -22 79 -5 0 -9 12 -8 28 l0 27
10 -24 c5 -13 23 -38 39 -54z m1603 -159 c-3 -17 -2 -19 5 -9 7 9 12 10 16 2
4 -6 17 -9 29 -6 17 4 28 -3 48 -32 15 -21 30 -53 34 -70 3 -18 10 -33 14 -33
7 0 2 -65 -14 -175 -7 -54 -56 -159 -86 -188 -10 -10 -19 -22 -19 -26 0 -5
-22 -24 -49 -42 -40 -27 -49 -39 -47 -59 2 -14 1 -17 -1 -7 -2 9 -14 17 -25
17 -29 0 -88 -22 -88 -33 0 -4 -3 -6 -8 -3 -4 2 -48 -6 -97 -19 -90 -23 -104
-21 -105 13 0 10 5 10 21 1 20 -10 21 -9 17 45 -2 45 -1 53 9 41 13 -19 25 -5
13 15 -5 9 -5 19 2 27 6 7 7 13 2 13 -5 0 -2 5 6 10 13 9 13 10 0 10 -11 0
-12 2 -3 8 10 6 10 16 1 46 -10 30 -9 39 2 46 9 5 14 31 15 74 2 69 -5 82 -22
44 -10 -21 -11 -21 -10 10 0 17 3 32 7 32 11 0 11 78 0 85 -6 3 -10 13 -10 21
0 8 4 12 10 9 12 -7 2 23 -14 44 -9 12 -7 13 11 9 16 -4 23 0 27 16 5 16 8 18
15 7 6 -10 24 -12 67 -7 33 3 69 5 81 6 16 0 23 9 30 36 l8 36 28 -27 c20 -21
27 -24 27 -11 0 9 7 16 15 16 20 0 7 -24 -35 -65 -22 -20 -29 -36 -26 -50 3
-11 6 -26 6 -34 0 -7 6 -11 14 -8 8 3 16 1 18 -5 3 -7 13 -3 26 10 12 12 30
22 40 22 20 0 64 29 45 30 -6 0 -9 9 -6 20 4 16 -1 23 -26 33 -26 9 -31 17
-31 44 0 18 4 33 9 33 5 0 7 -10 4 -22z m24 -610 c-3 -8 -6 -5 -6 6 -1 11 2
17 5 13 3 -3 4 -12 1 -19z m-32 -48 c3 -5 -3 -10 -15 -10 -12 0 -18 5 -15 10
3 6 10 10 15 10 5 0 12 -4 15 -10z m-723 -152 c-7 -7 -12 -8 -12 -2 0 6 3 14
7 17 3 4 9 5 12 2 2 -3 -1 -11 -7 -17z"/>
<path d="M4764 4543 c-4 -10 -9 -22 -10 -28 -11 -71 -20 -96 -45 -124 -33 -39
-33 -39 -16 -79 11 -27 14 -29 30 -17 16 11 16 16 5 34 -10 16 -10 23 0 33 9
9 12 9 12 -4 0 -9 4 -19 9 -23 6 -3 7 9 4 31 -5 33 -4 36 11 31 14 -6 17 -2
14 16 -2 12 -9 21 -16 20 -17 -4 -15 22 3 37 12 10 20 7 45 -20 16 -18 30 -36
30 -41 0 -5 4 -9 10 -9 5 0 18 -17 29 -37 10 -21 42 -59 70 -84 l51 -46 0 -80
c0 -79 0 -80 25 -80 25 0 53 22 42 33 -3 4 0 13 8 21 21 20 19 56 -5 85 -10
14 -16 28 -13 32 4 4 -3 9 -15 13 -12 3 -22 10 -22 17 -1 14 -96 116 -109 116
-5 0 -13 10 -17 22 -3 12 -17 33 -30 47 -13 14 -24 32 -24 39 0 7 -6 15 -14
18 -8 3 -16 14 -19 25 -6 24 -32 25 -43 2z"/>
<path d="M2681 4504 c0 -11 3 -14 6 -6 3 7 2 16 -1 19 -3 4 -6 -2 -5 -13z"/>
<path d="M3107 4303 c-30 -3 -40 -10 -47 -31 -6 -15 -15 -35 -20 -44 -18 -31
-12 -57 15 -64 38 -9 55 2 55 35 0 37 10 62 21 55 5 -3 9 7 9 21 0 17 4 24 12
19 7 -4 8 -3 4 4 -4 7 -8 11 -9 10 -1 -1 -19 -3 -40 -5z"/>
<path d="M4664 4292 c-12 -9 -29 -29 -39 -44 -16 -25 -16 -28 -1 -34 19 -7 22
-23 4 -20 -37 8 -77 19 -110 32 -30 11 -38 11 -38 1 0 -9 -2 -9 -8 0 -7 11
-48 22 -97 27 -11 1 -37 8 -58 15 -29 10 -42 10 -50 2 -17 -17 5 -45 38 -49
16 -2 38 -10 50 -18 13 -8 39 -13 63 -11 25 2 40 -1 39 -7 -1 -6 12 -10 31 -9
18 1 30 -2 27 -7 -3 -4 3 -7 12 -5 10 1 25 -4 34 -12 15 -13 166 -36 180 -27
4 2 9 -3 12 -11 4 -8 15 -12 27 -10 11 2 20 0 20 -5 0 -10 19 -8 38 3 7 5 12
3 12 -7 0 -8 7 -13 18 -11 9 2 20 4 25 4 19 2 5 42 -18 51 -14 5 -25 15 -25
21 0 6 -8 9 -19 6 -10 -2 -26 0 -35 5 -11 6 -16 5 -16 -3 0 -8 -3 -9 -13 0 -8
6 -17 8 -20 4 -4 -3 -7 0 -7 7 0 9 -11 11 -40 7 -22 -3 -40 -1 -40 4 0 5 4 9
9 9 5 0 8 15 6 33 -1 17 2 40 7 50 13 26 7 29 -18 9z"/>
<path d="M4211 4284 c0 -11 3 -14 6 -6 3 7 2 16 -1 19 -3 4 -6 -2 -5 -13z"/>
<path d="M4188 4265 c-3 -6 -9 -35 -13 -65 -4 -30 -12 -61 -17 -67 -6 -7 -8
-20 -4 -28 3 -9 1 -23 -4 -33 -5 -9 -25 -66 -45 -127 -20 -60 -41 -119 -46
-130 -6 -12 -11 -27 -12 -35 -2 -8 -12 -35 -24 -60 -27 -58 -37 -100 -23 -100
6 0 8 -4 5 -10 -3 -5 -1 -10 5 -10 6 0 13 7 17 16 3 8 12 13 19 10 10 -4 14 4
14 29 0 28 -3 33 -17 29 -14 -5 -15 -4 -4 4 8 6 21 8 29 4 11 -4 14 -1 9 11
-3 9 -2 19 4 23 6 3 8 13 5 21 -3 8 -2 12 3 9 10 -6 24 44 26 89 0 17 6 39 13
51 8 16 8 24 -1 34 -7 7 -7 10 -1 7 6 -4 20 15 33 44 22 48 22 51 5 70 -17 19
-17 20 1 13 14 -6 17 -4 12 9 -3 8 1 21 9 28 16 13 16 55 1 77 -7 8 -5 12 6
12 8 0 17 6 20 13 6 16 -17 75 -25 62z m-138 -605 c0 -5 -5 -10 -11 -10 -5 0
-7 5 -4 10 3 6 8 10 11 10 2 0 4 -4 4 -10z"/>
<path d="M3306 4145 c-10 -14 -24 -31 -30 -40 -12 -16 -64 -23 -83 -12 -7 4
-18 -2 -27 -15 -20 -28 -11 -34 69 -46 60 -10 125 5 125 28 0 6 7 10 15 10 18
0 43 42 27 48 -6 2 -8 10 -5 18 3 8 0 14 -6 14 -6 0 -11 -8 -11 -17 -1 -14 -5
-12 -21 10 -25 33 -29 33 -53 2z"/>
<path d="M2153 4030 c-3 -17 -10 -33 -14 -36 -14 -8 -11 -91 4 -97 16 -6 43
14 45 33 3 49 8 64 24 68 10 2 18 11 18 19 0 11 -4 11 -20 3 -20 -11 -25 -5
-21 28 4 27 -30 11 -36 -18z"/>
<path d="M2384 4033 c4 -8 1 -13 -7 -13 -9 0 -27 -20 -41 -44 -31 -53 -31 -52
-7 -52 16 0 17 4 10 18 -6 12 -6 18 0 18 5 0 12 8 14 18 4 16 5 16 6 0 1 -12
9 -18 24 -18 20 0 24 5 22 30 -1 17 -8 36 -15 43 -10 9 -11 9 -6 0z m11 -32
c3 -5 1 -12 -5 -16 -5 -3 -10 1 -10 9 0 18 6 21 15 7z"/>
<path d="M5060 3995 c1 -42 -9 -96 -23 -123 -9 -19 -8 -29 4 -50 14 -26 34
-33 34 -11 0 6 8 16 17 23 9 7 17 21 17 32 0 10 2 34 5 52 3 21 1 32 -7 32 -7
0 -6 4 3 10 13 8 12 10 -2 10 -10 0 -18 4 -18 8 0 5 -7 17 -15 28 -14 18 -15
18 -15 -11z"/>
<path d="M1536 3931 c-4 -6 -19 -110 -18 -121 0 -3 -3 -9 -8 -15 -9 -12 -22
-83 -35 -190 -3 -27 -9 -76 -13 -107 -5 -33 -4 -54 1 -51 5 3 4 -4 -2 -15 -16
-31 -5 -50 27 -45 54 9 57 12 33 36 -11 13 -21 27 -21 32 0 5 6 0 14 -10 13
-18 14 -18 24 2 6 11 8 23 5 27 -4 4 -8 12 -9 19 -1 7 -3 17 -4 22 -5 22 1 36
12 29 8 -5 9 0 6 14 -4 13 -1 22 5 22 7 0 5 5 -3 10 -8 5 -11 10 -6 10 5 0 3
7 -5 16 -8 10 -9 18 -2 22 11 8 11 61 -1 80 -4 7 -4 21 -1 32 6 19 8 19 23 4
20 -21 28 -3 11 27 -9 18 -9 25 5 34 22 17 20 25 -6 25 -12 0 -18 3 -14 8 14
14 31 7 70 -30 21 -21 43 -35 47 -32 5 3 9 -2 9 -10 0 -8 6 -21 13 -28 7 -7
16 -21 20 -30 9 -26 26 -22 19 5 -5 19 -4 20 9 7 18 -18 33 -54 19 -45 -6 3
-10 -1 -10 -10 0 -8 10 -20 23 -25 12 -5 18 -9 13 -9 -6 -1 -1 -10 10 -20 10
-11 28 -30 39 -44 11 -13 26 -22 33 -20 6 3 12 -2 12 -12 0 -14 6 -16 27 -10
16 4 25 3 21 -1 -14 -13 31 -37 46 -25 7 6 16 8 19 4 4 -3 7 -1 7 7 0 9 9 11
31 6 20 -4 35 -1 45 8 10 10 28 13 60 10 32 -4 53 -1 70 11 13 8 24 11 24 5 0
-5 20 -10 45 -10 25 0 45 4 45 8 0 8 47 9 55 1 9 -9 110 1 113 10 2 6 10 7 19
4 11 -4 14 -2 9 5 -14 23 5 32 26 12 22 -20 64 -28 53 -10 -3 6 1 10 10 10 9
0 13 -4 10 -10 -4 -6 6 -10 24 -10 16 0 33 5 37 11 4 6 20 8 40 4 21 -3 34 -2
34 5 0 5 7 10 16 10 14 0 15 -9 9 -62 -4 -35 -10 -65 -14 -68 -6 -5 -23 -40
-40 -82 -5 -13 -22 -54 -38 -93 -17 -38 -38 -104 -48 -145 -18 -77 -21 -88
-49 -155 -9 -22 -18 -55 -19 -72 -1 -18 -5 -33 -9 -33 -5 0 -8 -8 -8 -17 0
-10 -14 -45 -30 -78 -34 -69 -36 -78 -15 -95 8 -7 15 -18 15 -24 0 -6 -5 -3
-11 7 -5 9 -15 17 -20 17 -6 0 -8 -4 -5 -9 3 -5 -1 -28 -9 -51 -8 -23 -15 -53
-15 -65 0 -12 -10 -34 -21 -49 -12 -15 -19 -30 -15 -33 3 -4 -1 -14 -10 -24
-8 -9 -16 -32 -16 -50 -1 -19 -7 -40 -15 -47 -7 -7 -14 -24 -14 -38 -2 -36 -3
-42 -11 -50 -5 -4 -8 -22 -8 -40 0 -18 -4 -35 -10 -39 -5 -3 -7 -12 -4 -20 3
-7 0 -24 -7 -37 -17 -29 -20 -44 -21 -93 0 -22 -5 -46 -11 -53 -17 -21 -19
-55 -5 -64 10 -5 8 -8 -4 -8 -10 0 -18 -7 -18 -16 0 -9 5 -12 13 -8 6 4 4 -1
-5 -12 -9 -10 -20 -31 -23 -46 -4 -16 -11 -28 -17 -28 -5 0 -6 5 -3 10 8 12 8
12 -89 15 -43 1 -94 -1 -112 -5 -26 -6 -34 -5 -34 6 0 8 -4 14 -10 14 -5 0
-10 7 -10 15 0 8 -11 22 -26 31 -14 9 -23 23 -20 29 5 14 -34 55 -52 55 -7 0
-12 7 -12 15 0 8 -10 20 -22 26 -13 7 -34 23 -47 35 -13 13 -30 24 -37 24 -8
0 -14 4 -14 9 0 8 -21 8 -40 1 -3 -1 -11 -3 -18 -4 -7 0 -23 -14 -36 -31 -23
-29 -25 -29 -42 -13 -16 16 -17 22 -5 53 10 30 10 39 -1 52 -8 11 -9 14 -1 10
8 -5 15 5 22 30 8 26 7 39 0 44 -8 4 -7 8 2 11 8 3 10 11 4 24 -4 10 -9 25
-11 32 -4 22 -14 27 -27 12 -9 -10 -9 -11 1 -6 6 4 12 2 12 -3 0 -14 -13 -14
-28 1 -12 12 -13 10 -16 -59 -1 -12 -4 -25 -8 -29 -5 -4 -8 -18 -8 -31 0 -13
-4 -31 -9 -41 -6 -9 -12 -29 -16 -44 -6 -29 -25 -39 -25 -14 0 8 -13 17 -29
21 -16 3 -35 13 -42 21 -6 8 -18 14 -25 14 -8 0 -14 5 -14 11 0 6 -7 9 -15 5
-13 -5 -19 4 -17 25 1 3 -6 6 -14 6 -17 0 -18 -9 -4 -23 8 -8 6 -15 -4 -24
-13 -10 -17 -9 -22 4 -3 9 -10 13 -15 10 -13 -8 -10 8 5 29 7 9 19 17 25 17 7
0 9 5 6 10 -3 6 -1 10 6 10 7 0 10 11 7 30 -2 16 0 31 5 33 4 1 11 31 14 66 5
48 3 65 -8 72 -8 5 -9 9 -3 9 7 0 14 6 17 14 6 16 -24 17 -35 1 -5 -6 -8 -6
-8 1 0 16 27 37 39 30 6 -4 8 10 7 34 -2 23 1 37 6 33 6 -3 7 3 4 15 -4 12 0
34 9 52 14 26 14 34 3 48 -10 12 -10 14 0 8 7 -4 12 -2 12 8 0 8 8 20 18 26
16 11 16 11 -2 6 -15 -5 -17 -4 -8 7 7 8 9 17 6 20 -4 3 1 13 10 22 23 23 20
37 -6 30 -20 -5 -21 -5 -6 7 9 7 25 19 35 26 10 7 13 10 7 7 -13 -5 -26 17
-30 53 -2 19 1 22 18 16 17 -5 20 -3 15 10 -4 9 -3 16 1 16 4 0 8 9 8 20 0 13
-5 19 -13 16 -9 -4 -13 3 -13 20 0 14 -4 22 -10 19 -16 -10 -12 13 7 34 9 11
20 18 25 15 4 -3 8 0 8 5 0 6 -7 11 -15 11 -10 0 -14 9 -13 24 1 14 5 23 9 20
20 -12 18 21 -2 43 l-24 26 27 -7 c22 -5 27 -2 30 16 2 13 1 39 -3 58 -5 35
10 67 26 52 10 -9 -10 28 -28 53 -13 17 -17 17 -31 6 -18 -15 -13 -70 8 -83 7
-5 4 -8 -7 -8 -10 0 -21 -10 -26 -22 -7 -21 -9 -39 -14 -133 -1 -16 -5 -33 -9
-36 -5 -3 -10 -32 -13 -65 -2 -32 -11 -97 -18 -144 -8 -47 -13 -101 -12 -120
1 -19 -3 -39 -10 -45 -13 -11 -47 -149 -51 -205 -1 -19 -5 -43 -9 -53 -4 -10
-5 -21 -2 -24 4 -3 -5 -14 -18 -25 -14 -11 -25 -26 -25 -33 0 -8 -12 -21 -27
-29 -31 -15 -83 -70 -83 -86 0 -5 -4 -9 -9 -8 -15 4 -60 -62 -54 -78 8 -23 28
-16 40 14 l11 27 1 -33 c1 -30 3 -32 21 -22 11 6 18 15 14 21 -3 5 0 17 7 25
8 10 14 11 19 4 4 -6 15 7 25 30 12 26 25 40 37 40 15 0 18 -8 18 -47 0 -40 5
-54 31 -81 16 -17 43 -39 60 -47 32 -17 37 -36 14 -55 -8 -7 -15 -19 -15 -26
0 -8 -4 -14 -10 -14 -5 0 -21 -18 -36 -39 -28 -44 -26 -76 7 -86 17 -6 21 -12
18 -31 0 -4 5 -10 12 -14 21 -13 119 42 119 67 0 4 10 17 22 30 17 19 19 27
10 45 -8 17 -11 19 -11 6 -1 -9 -20 -26 -45 -38 -24 -11 -50 -28 -56 -36 -7
-7 -19 -14 -27 -14 -12 0 -13 3 -3 15 6 8 9 19 5 25 -6 9 6 14 31 11 6 -1 11
9 10 21 -1 13 -7 22 -14 20 -13 -2 -16 17 -4 33 9 13 58 12 55 -2 -2 -7 9 -8
31 -3 33 7 34 7 40 -31 3 -21 9 -40 14 -42 13 -7 73 13 67 23 -4 6 0 10 7 10
7 0 25 11 40 25 28 26 44 33 32 14 -3 -6 5 -3 20 6 14 10 26 20 26 24 0 3 15
6 33 6 26 0 33 -4 35 -20 0 -11 17 -35 37 -53 64 -59 105 -143 107 -221 1 -25
4 -29 15 -20 20 17 16 2 -6 -20 -13 -13 -23 -16 -34 -9 -16 8 -57 -8 -57 -23
0 -4 -16 -10 -35 -13 -20 -4 -33 -11 -30 -16 3 -4 -3 -7 -12 -6 -20 3 -59 -11
-83 -30 -8 -6 -32 -17 -53 -24 -21 -6 -45 -23 -53 -36 -9 -13 -20 -21 -25 -18
-16 9 -10 -33 7 -47 13 -10 17 -10 25 2 5 8 9 20 9 27 0 9 13 12 43 10 41 -3
42 -4 42 -38 0 -28 4 -34 18 -32 21 4 23 -17 2 -32 -9 -6 -17 -33 -20 -61 -7
-68 -13 -99 -37 -175 -11 -36 -26 -83 -33 -105 -15 -47 -32 -53 -126 -47 -56
3 -67 1 -73 -14 -6 -16 -7 -16 -19 0 -10 14 -24 17 -63 14 -42 -3 -49 -6 -52
-26 -2 -12 0 -22 5 -21 4 1 20 -3 35 -9 15 -6 34 -9 42 -6 8 3 17 0 21 -6 5
-8 11 -8 21 1 8 6 14 8 14 3 0 -5 5 -2 10 6 8 13 11 12 24 -5 11 -15 17 -17
28 -7 8 6 18 9 22 5 4 -4 11 -1 16 7 8 13 10 13 10 -1 0 -12 8 -14 30 -11 17
2 30 8 30 13 0 5 9 9 20 9 11 0 20 -5 20 -11 0 -8 4 -8 15 1 8 6 19 9 25 5 6
-4 25 -8 42 -10 17 -3 33 -6 35 -9 8 -8 -29 -56 -38 -50 -12 7 -54 -34 -54
-54 0 -25 34 -60 65 -67 16 -3 36 -15 45 -25 10 -11 22 -17 26 -14 5 3 24 -6
42 -20 19 -15 44 -26 55 -26 12 0 22 -4 22 -10 0 -5 8 -10 18 -10 10 0 22 -3
26 -7 4 -5 11 -8 14 -9 9 -1 61 -23 94 -41 26 -13 62 -24 173 -55 22 -6 51
-10 64 -9 13 0 29 -3 35 -7 6 -5 43 -17 81 -26 62 -16 223 -66 325 -101 93
-32 105 -35 108 -25 3 7 9 7 19 -1 14 -13 23 -7 37 26 3 6 8 5 13 -2 6 -8 20
-9 43 -5 42 9 51 9 68 -1 6 -5 17 -5 23 -1 19 12 68 14 74 4 10 -16 35 -11 35
7 0 14 2 14 18 2 9 -8 24 -14 32 -13 8 1 21 2 28 3 7 0 10 5 7 11 -4 7 2 7 19
1 18 -8 26 -6 30 5 5 14 31 14 68 -1 23 -9 45 4 27 16 -9 5 1 7 25 5 46 -4
113 14 94 25 -10 7 -10 11 1 21 10 10 12 10 7 1 -4 -7 -2 -13 3 -13 6 0 11 5
11 10 0 6 7 10 15 10 8 0 15 -4 15 -10 0 -5 7 -10 15 -10 8 0 15 5 15 11 0 5
4 8 9 4 5 -3 16 2 24 10 9 8 20 15 25 15 5 0 16 8 23 17 10 11 10 14 2 9 -9
-5 -13 0 -13 13 0 12 -3 22 -7 22 -5 1 -28 3 -53 6 -73 6 -80 7 -80 14 0 4
-12 6 -27 4 -16 -2 -34 2 -42 9 -11 8 -13 8 -8 -1 5 -8 -1 -8 -19 2 -15 8 -31
12 -35 9 -5 -3 -21 2 -37 10 -16 8 -32 13 -34 10 -3 -2 -17 11 -32 30 -27 36
-33 52 -16 41 5 -3 21 5 35 19 14 15 30 26 34 26 5 0 14 14 20 31 8 24 14 29
24 21 10 -9 13 -4 15 23 3 40 -13 53 -37 31 -10 -9 -22 -16 -27 -16 -14 0 -64
-46 -64 -59 0 -6 -6 -11 -14 -11 -8 0 -23 -10 -33 -23 -10 -12 -31 -31 -48
-41 -36 -23 -105 -94 -105 -109 0 -6 3 -8 6 -4 3 3 17 2 30 -3 20 -8 24 -6 24
8 0 13 2 14 9 3 5 -7 14 -10 20 -6 9 5 9 10 1 20 -15 18 -3 38 17 31 8 -3 20
-3 25 0 6 4 26 7 45 8 25 1 33 -3 30 -14 -5 -29 71 -70 132 -70 21 0 41 -3 45
-7 4 -4 19 -7 34 -8 18 0 28 -6 30 -19 3 -14 0 -17 -12 -13 -8 3 -28 0 -43 -8
-15 -8 -36 -15 -45 -15 -9 0 -20 -5 -23 -11 -4 -6 -13 -8 -21 -5 -7 3 -18 -3
-23 -12 -6 -10 -11 -12 -11 -4 0 14 -46 17 -54 3 -3 -5 -15 -7 -26 -4 -11 3
-32 -2 -46 -12 -15 -9 -24 -12 -20 -7 4 8 -21 11 -76 10 l-83 -2 -3 27 c-3 21
1 27 16 27 11 0 29 8 40 18 17 15 18 20 7 40 -8 16 -15 20 -20 12 -5 -8 -10
-8 -20 0 -10 8 -17 6 -27 -7 -18 -26 -118 -103 -132 -103 -6 0 -18 -9 -25 -19
-10 -14 -22 -18 -45 -14 -35 5 -151 38 -181 52 -47 22 -174 60 -218 67 -26 3
-50 10 -53 15 -3 5 -17 6 -31 3 -18 -5 -24 -3 -19 5 4 6 0 11 -11 12 -43 2
-220 48 -270 70 -23 10 -45 19 -48 19 -3 0 -43 17 -88 39 -45 21 -93 42 -107
46 -14 4 -27 11 -30 14 -3 4 -17 14 -32 24 -16 10 -28 25 -27 35 0 11 2 12 6
4 3 -9 12 -5 28 13 13 14 27 25 30 25 11 0 34 27 29 33 -3 3 3 3 15 0 24 -6
29 15 9 36 -11 11 -10 13 2 9 17 -6 116 25 112 35 -1 4 4 20 12 35 9 18 11 33
5 43 -7 12 -15 10 -49 -9 -22 -13 -45 -20 -50 -17 -5 3 -11 1 -15 -4 -3 -6
-12 -8 -19 -5 -8 3 -17 1 -21 -5 -8 -13 -84 -14 -104 -2 -9 6 -23 4 -38 -6
-21 -14 -23 -14 -23 1 0 9 7 16 15 16 8 0 15 5 15 10 0 6 3 9 8 9 19 -3 25 2
12 11 -13 8 -12 10 3 10 9 0 17 7 17 15 0 8 4 15 10 15 11 0 9 28 -3 48 -11
17 0 32 18 25 11 -4 14 1 12 16 -2 11 -6 23 -10 27 -3 4 -1 16 5 27 9 17 8 19
-6 14 -14 -6 -16 -3 -10 16 4 12 11 25 17 29 7 4 6 12 -2 22 -11 13 -11 16 -1
16 8 0 10 3 7 6 -3 4 -2 15 4 26 8 15 7 22 -6 32 -9 6 -17 26 -17 44 -1 20 -6
32 -15 32 -14 0 -17 19 -5 35 4 6 18 12 30 12 13 1 32 12 42 23 11 12 23 19
27 17 5 -3 15 -2 23 4 10 6 11 9 3 9 -20 0 -15 24 6 37 15 10 22 9 31 -3 11
-12 14 -12 25 3 11 15 15 15 29 4 14 -11 16 -11 16 3 0 10 9 16 25 16 17 0 23
4 19 15 -4 8 1 17 10 21 19 7 21 30 4 38 -10 5 -10 7 0 12 6 3 12 11 12 18 0
9 13 11 50 6 28 -4 80 -3 118 2 37 5 77 6 90 3 16 -4 24 0 29 12 4 10 12 22
20 26 8 5 13 26 13 52 0 27 4 44 11 43 6 -2 21 37 33 85 20 79 21 89 7 97 -14
8 -14 9 1 15 10 4 15 11 12 16 -3 6 1 21 10 34 9 13 16 42 16 65 0 30 4 40 16
40 12 0 15 6 11 21 -4 15 1 28 16 40 20 17 21 18 3 19 -19 0 -19 0 0 21 10 12
17 32 16 50 -2 19 2 29 12 29 10 0 12 7 8 22 -4 16 -2 19 9 13 10 -6 9 -2 -2
11 -21 24 -17 46 11 74 12 12 19 28 16 36 -3 9 1 14 11 14 9 0 13 3 10 7 -4 3
-2 13 5 20 8 9 8 17 2 21 -13 9 -12 73 1 70 6 -1 9 -9 7 -16 -2 -8 1 -11 7 -7
6 3 11 19 11 34 0 20 6 30 20 34 14 3 20 14 20 31 0 14 4 26 9 26 5 0 9 6 8
13 -1 42 5 67 16 67 8 0 14 7 14 15 0 18 -9 19 -26 3 -11 -11 -12 -10 -6 1 4
8 2 17 -6 22 -12 8 -11 11 4 20 9 5 17 15 17 21 0 6 8 18 18 27 10 9 19 28 20
43 1 22 -2 25 -21 22 -17 -3 -16 -1 6 8 15 7 27 18 27 26 0 8 5 10 13 6 7 -5
6 0 -3 11 -8 10 -10 16 -5 13 6 -4 15 5 22 18 6 14 7 26 2 30 -15 9 -10 44 6
44 8 0 15 7 15 16 0 8 -4 12 -10 9 -5 -3 -10 1 -10 9 0 9 5 16 10 16 6 0 10 5
10 11 0 5 -4 7 -10 4 -6 -3 -7 1 -4 9 7 17 20 21 27 9 2 -5 3 -3 1 2 -1 6 4
19 12 30 19 25 18 35 -3 29 -14 -4 -13 -2 2 7 11 6 22 14 24 15 2 2 -4 13 -14
24 -10 11 -13 20 -7 20 7 0 12 -4 12 -10 0 -5 4 -10 9 -10 12 0 24 40 22 73
-2 17 4 29 13 33 24 9 19 54 -8 79 -19 18 -33 22 -67 19 -23 -2 -45 -7 -48
-11 -9 -13 -28 -14 -55 -3 -17 6 -27 6 -31 -1 -4 -5 -15 -7 -26 -4 -10 4 -19
2 -19 -3 0 -18 -60 -20 -71 -3 -9 14 -10 14 -5 -1 7 -23 -9 -31 -24 -12 -11
12 -15 12 -22 2 -6 -11 -10 -10 -17 1 -6 10 -10 10 -16 1 -4 -7 -10 -8 -14 -3
-4 6 -35 7 -80 2 -41 -4 -105 -10 -143 -13 -38 -3 -76 -10 -84 -17 -11 -9 -14
-7 -14 15 0 14 -5 26 -11 26 -6 0 -9 7 -6 14 4 11 1 13 -10 9 -32 -12 -1 18
53 53 30 19 52 39 49 44 -4 6 14 11 42 11 45 2 66 3 103 7 14 2 24 41 10 40
-29 -2 -60 4 -60 13 0 6 7 8 16 5 12 -4 14 -1 9 14 -4 11 -2 20 4 20 6 0 11
-6 11 -12 0 -7 5 -5 11 5 6 9 8 26 4 36 -7 22 -38 37 -43 21 -2 -6 -14 -21
-26 -33 -12 -13 -20 -29 -18 -36 3 -8 0 -11 -7 -7 -6 4 -23 -2 -37 -13 -15
-12 -21 -21 -15 -21 9 0 9 -3 0 -12 -6 -7 -27 -13 -45 -13 -18 0 -39 6 -45 13
-11 10 -9 12 8 12 20 0 63 46 63 68 0 5 -11 17 -25 26 -14 9 -25 12 -25 6 0
-5 -7 -10 -15 -10 -11 0 -13 -7 -9 -29 5 -24 2 -31 -17 -41 -13 -7 -34 -25
-47 -41 -13 -16 -29 -29 -35 -29 -14 0 -87 -63 -87 -75 0 -4 23 -5 51 -3 57 6
65 -2 55 -55 -8 -43 -16 -53 -48 -61 -21 -5 -28 -3 -28 9 0 14 -12 19 -32 16
-5 0 -8 6 -8 15 0 23 -67 87 -82 78 -10 -6 -11 -4 0 7 18 20 15 31 -7 20 -15
-9 -20 -7 -24 9 -3 11 -1 20 4 20 18 0 -26 49 -43 50 -10 0 -29 18 -43 40 -14
22 -30 40 -35 40 -12 0 -50 37 -50 49 0 16 -66 36 -74 22z m593 -55 c10 -12 8
-13 -8 -9 -12 3 -18 9 -15 14 7 12 10 11 23 -5z m-15 -40 c-3 -9 -10 -16 -15
-16 -6 0 -5 9 1 21 13 24 24 20 14 -5z m-51 -92 c-10 -7 -22 -13 -28 -13 -5 0
-2 4 8 10 9 6 15 14 12 20 -3 5 1 6 10 3 14 -6 14 -8 -2 -20z m-537 -91 c-11
-11 -17 4 -9 23 7 18 8 18 11 1 2 -10 1 -21 -2 -24z m904 -1324 c0 -6 -4 -7
-10 -4 -5 3 -10 11 -10 16 0 6 5 7 10 4 6 -3 10 -11 10 -16z m-1150 -4 c0 -8
-6 -15 -13 -15 -8 0 -14 7 -14 15 0 8 6 15 14 15 7 0 13 -7 13 -15z m67 -420
c-15 -16 -19 -13 -11 9 3 9 10 13 15 10 5 -3 3 -11 -4 -19z m441 -914 c-7 -12
-16 -21 -21 -21 -4 0 0 11 10 24 22 29 30 27 11 -3z"/>
<path d="M2403 3903 c-3 -7 -10 -10 -15 -6 -7 4 -9 -4 -6 -22 3 -15 2 -41 -2
-56 -9 -30 -4 -35 19 -20 9 6 10 11 2 15 -15 10 -14 27 2 24 6 -2 11 3 9 11
-3 12 -1 12 13 1 9 -7 15 -9 14 -4 -4 21 2 35 12 28 7 -4 9 2 7 17 -3 25 -46
35 -55 12z"/>
<path d="M2345 3840 c3 -5 8 -10 11 -10 2 0 4 5 4 10 0 6 -5 10 -11 10 -5 0
-7 -4 -4 -10z"/>
<path d="M5022 3790 c-7 -12 -8 -21 -2 -25 18 -11 10 -23 -11 -18 -14 4 -20 1
-18 -8 1 -8 -2 -25 -8 -39 -6 -14 -14 -32 -18 -40 -3 -8 -12 -26 -19 -38 -8
-13 -11 -33 -8 -44 5 -20 5 -20 23 3 10 13 19 18 19 12 0 -7 6 -13 14 -13 9 0
12 8 8 25 -2 14 -11 25 -20 25 -22 0 -6 13 18 15 11 1 20 -5 20 -12 0 -12 3
-12 15 1 19 18 19 21 0 40 -20 19 -9 45 16 39 22 -6 25 7 7 26 -11 10 -9 11 7
5 17 -7 18 -5 8 8 -7 8 -11 17 -9 19 2 2 -4 12 -13 21 -16 16 -17 16 -29 -2z"/>
<path d="M4437 3663 c-4 -3 -7 -17 -7 -30 0 -16 -9 -27 -27 -36 -16 -6 -31
-15 -34 -20 -3 -5 -10 -9 -15 -9 -26 0 -36 -16 -29 -47 3 -17 10 -31 15 -31
18 0 20 -40 4 -79 -11 -28 -22 -41 -36 -41 -15 0 -18 5 -13 19 8 26 -30 49
-39 25 -10 -25 -7 -52 7 -61 27 -18 37 -57 29 -115 -7 -46 -6 -58 5 -58 7 0
13 6 13 13 0 8 4 7 10 -3 8 -13 10 -12 10 3 0 10 5 15 10 12 6 -4 10 7 10 25
0 22 -6 33 -22 40 -19 8 -18 9 11 5 47 -5 65 18 45 57 -13 26 -13 28 3 28 15
0 16 2 3 10 -12 8 -12 10 -1 10 11 0 11 3 1 15 -10 13 -9 15 11 15 40 0 52
-14 44 -49 -3 -17 -6 -34 -6 -38 0 -5 -8 -16 -16 -25 -15 -16 -15 -18 0 -18 8
0 22 7 30 15 8 8 17 11 21 8 6 -6 10 12 7 35 -1 6 5 12 14 12 19 0 20 19 0 26
-8 4 -12 10 -10 15 3 5 -4 16 -16 26 -45 38 -51 45 -40 56 6 6 11 19 11 29 0
10 5 18 11 18 5 0 8 4 4 9 -3 5 0 13 6 17 6 4 16 0 21 -9 26 -48 62 -57 54
-14 -8 41 -19 59 -43 68 -20 7 -22 12 -13 28 12 24 13 34 1 27 -5 -3 -11 1
-15 9 -6 16 -18 19 -29 8z m-57 -146 c0 -7 -9 -13 -19 -13 -15 0 -17 3 -9 13
6 7 14 13 19 13 5 0 9 -6 9 -13z"/>
<path d="M3961 3578 c-5 -13 -6 -27 -3 -32 3 -5 0 -6 -6 -2 -7 4 -12 6 -12 4
0 -2 -4 -18 -9 -36 -8 -26 -7 -32 5 -32 9 0 12 5 8 13 -4 6 3 3 15 -8 19 -16
24 -17 31 -5 6 8 10 27 10 42 0 14 5 28 12 30 7 3 9 12 5 22 -5 11 -13 16 -23
12 -8 -3 -12 -2 -9 4 3 6 1 10 -5 10 -6 0 -14 -10 -19 -22z"/>
<path d="M4911 3549 c-12 -35 -15 -98 -5 -123 7 -19 38 -22 31 -3 -2 6 2 25
11 42 10 20 11 30 3 33 -6 2 -11 12 -11 23 0 10 -5 19 -11 19 -6 0 -8 9 -4 20
10 33 -2 23 -14 -11z"/>
<path d="M4966 3512 c-2 -4 -1 -14 5 -22 7 -12 9 -10 9 8 0 23 -5 28 -14 14z"/>
<path d="M1898 3483 c-8 -10 -19 -31 -22 -48 -4 -16 -14 -43 -21 -60 -21 -46
-35 -108 -30 -133 2 -13 0 -20 -6 -17 -5 4 -10 -8 -10 -24 -2 -43 -3 -48 -11
-57 -12 -12 -9 -26 4 -22 7 3 18 -1 25 -8 20 -19 15 -26 -8 -12 -17 11 -22 10
-34 -6 -8 -10 -12 -22 -10 -26 3 -5 -2 -27 -10 -51 -9 -23 -13 -50 -10 -60 4
-10 -1 -28 -9 -41 -8 -13 -19 -49 -26 -81 -6 -33 -18 -74 -26 -93 -8 -18 -18
-62 -23 -96 -21 -135 -31 -181 -43 -195 -7 -8 -13 -21 -15 -29 -2 -8 -4 -21
-6 -29 -2 -8 -6 -18 -10 -21 -14 -14 -6 -24 16 -20 12 3 32 5 45 5 21 1 31 24
15 34 -5 2 -2 2 5 1 16 -4 15 23 -2 29 -13 5 -30 47 -17 45 19 -2 22 4 10 19
-13 15 -11 16 13 10 22 -6 28 -3 34 15 5 13 8 26 9 30 0 3 3 10 8 14 12 12 8
24 -8 24 -8 0 -15 3 -15 6 0 3 7 12 15 20 17 17 21 59 5 49 -5 -3 -10 3 -10
14 0 12 4 21 9 21 5 0 11 18 15 39 3 22 10 41 14 43 5 1 12 27 15 56 5 42 3
52 -8 52 -28 0 -12 34 21 44 28 9 49 52 28 60 -19 7 -18 42 1 50 8 3 15 14 15
24 0 11 6 25 14 31 10 9 13 31 11 81 -3 57 -1 70 11 70 9 0 12 5 9 10 -3 6 -1
10 4 10 6 0 11 14 11 30 0 17 -5 30 -11 30 -5 0 -7 -6 -3 -12 5 -10 4 -10 -6
-1 -11 10 -11 15 -1 27 7 8 10 19 8 24 -3 4 -2 14 3 22 8 13 12 12 24 -5 14
-19 15 -17 12 23 -2 23 1 45 6 48 5 3 1 12 -9 20 -17 12 -17 13 0 14 9 0 17 5
17 10 0 15 -15 12 -32 -7z m-93 -523 c-3 -5 -14 -10 -23 -10 -15 0 -15 2 -2
10 20 13 33 13 25 0z m-105 -370 c0 -5 -5 -10 -11 -10 -5 0 -7 5 -4 10 3 6 8
10 11 10 2 0 4 -4 4 -10z"/>
<path d="M3913 3450 c3 -11 0 -18 -6 -17 -6 1 -13 -9 -15 -22 -3 -18 0 -22 12
-18 10 4 16 1 16 -8 0 -9 -6 -12 -16 -8 -10 4 -17 -1 -21 -16 -3 -11 -9 -21
-13 -21 -7 0 -26 -66 -33 -115 -1 -11 -6 -26 -11 -33 -4 -7 -6 -19 -3 -26 3
-7 -3 -20 -13 -29 -11 -9 -21 -37 -25 -68 -4 -30 -12 -57 -17 -60 -5 -3 -10
-12 -12 -20 -1 -8 -7 -24 -14 -36 -7 -12 -12 -30 -12 -39 0 -22 -17 -75 -42
-133 -11 -25 -18 -56 -16 -71 2 -15 -2 -32 -10 -39 -7 -7 -11 -18 -9 -24 2 -7
-3 -17 -11 -23 -8 -6 -16 -33 -18 -63 -4 -45 -1 -57 18 -76 13 -12 36 -25 53
-29 16 -4 32 -11 35 -14 11 -15 157 -80 190 -85 86 -14 100 -20 100 -44 0 -24
23 -83 31 -83 4 0 11 5 14 10 3 6 14 10 23 10 16 -1 16 -1 0 -10 -14 -9 -16
-25 -15 -101 2 -67 6 -92 17 -99 8 -5 10 -10 4 -10 -8 0 -11 -16 -9 -45 4 -48
-10 -59 -38 -30 -13 13 -15 10 -12 -21 5 -51 27 -66 51 -35 9 12 12 9 18 -14
5 -19 3 -31 -6 -36 -16 -10 0 -41 24 -45 26 -3 41 13 40 45 0 17 3 31 7 31 4
0 7 17 6 38 0 32 -3 38 -17 34 -12 -3 -18 1 -18 12 0 10 6 13 15 10 11 -5 15
1 15 25 0 23 -4 29 -15 25 -19 -8 -19 6 0 42 11 22 12 30 3 33 -29 10 -39 30
-28 52 13 23 6 69 -11 69 -6 0 -8 4 -5 9 3 5 -1 22 -10 39 -20 41 -6 66 43 82
93 30 67 46 -80 49 -62 1 -128 4 -147 7 -45 8 -130 44 -130 55 0 5 -8 9 -19 9
-10 0 -39 12 -64 26 l-46 25 24 27 c14 15 26 34 26 42 1 8 3 30 3 48 1 18 9
40 17 50 24 29 23 64 -3 85 -12 10 -17 16 -10 12 7 -4 12 1 12 12 0 15 2 15 9
4 7 -11 12 -4 20 26 6 22 18 46 26 53 8 7 12 17 8 23 -3 5 2 16 11 23 10 7 16
21 14 31 -2 10 4 26 13 36 17 18 15 62 -2 51 -11 -6 -11 13 0 40 7 18 8 18 14
2 4 -9 11 -15 16 -11 6 3 8 12 4 20 -3 9 0 22 7 30 7 8 9 15 4 15 -5 0 -2 6 7
13 8 7 15 23 15 37 0 14 4 31 8 38 4 7 2 19 -4 27 -8 10 -9 15 -2 15 6 0 18
14 26 31 15 31 15 31 -7 26 -21 -6 -21 -5 3 13 14 11 22 20 18 20 -4 0 -1 12
7 27 8 15 12 30 9 35 -3 4 0 8 7 8 7 0 9 3 5 7 -4 4 -15 8 -24 8 -9 0 -16 6
-14 13 1 6 -3 12 -9 12 -6 0 -9 -9 -6 -20z m-93 -434 c0 -3 -4 -8 -10 -11 -5
-3 -10 -1 -10 4 0 6 5 11 10 11 6 0 10 -2 10 -4z m-125 -364 c-3 -3 -11 0 -18
7 -9 10 -8 11 6 5 10 -3 15 -9 12 -12z m430 -582 c3 -5 1 -10 -4 -10 -6 0 -11
5 -11 10 0 6 2 10 4 10 3 0 8 -4 11 -10z m35 -160 c0 -5 -2 -10 -4 -10 -3 0
-8 5 -11 10 -3 6 -1 10 4 10 6 0 11 -4 11 -10z"/>
<path d="M4866 3443 c-6 -14 -5 -15 5 -6 7 7 10 15 7 18 -3 3 -9 -2 -12 -12z"/>
<path d="M4860 3408 c0 -10 -4 -18 -10 -18 -5 0 -9 -3 -8 -7 0 -5 -1 -15 -5
-23 -19 -50 -47 -147 -47 -162 0 -10 -4 -18 -8 -18 -7 0 -39 -78 -46 -112 -4
-19 -24 -70 -36 -90 -6 -10 -10 -29 -10 -42 0 -14 -4 -28 -10 -31 -5 -3 -10
-17 -10 -31 0 -13 -4 -24 -9 -24 -5 0 -12 -12 -15 -27 -21 -86 -53 -173 -64
-173 -7 0 -11 -4 -7 -9 9 -15 -21 -38 -69 -52 -26 -7 -46 -17 -46 -21 0 -4
-11 -8 -25 -8 -14 0 -25 -4 -25 -10 0 -5 -9 -10 -21 -10 -30 0 -122 -31 -141
-48 -11 -9 -18 -29 -18 -53 0 -21 -5 -41 -10 -44 -6 -3 -7 -18 -4 -33 8 -34
24 -53 24 -28 0 13 5 16 21 11 12 -4 19 -3 16 2 -3 5 -8 22 -11 37 -4 25 -2
27 16 23 15 -4 34 5 67 34 39 35 89 64 126 73 6 2 18 6 27 10 9 4 21 5 26 2 5
-3 18 1 28 9 10 8 24 15 30 15 15 0 34 -68 34 -119 0 -24 4 -40 9 -36 5 3 3
-8 -5 -24 -8 -17 -16 -45 -17 -63 -1 -18 -6 -38 -10 -45 -4 -6 -4 -18 -1 -26
3 -9 -2 -27 -11 -41 -9 -14 -14 -30 -11 -35 4 -5 1 -13 -5 -16 -5 -4 -8 -12
-6 -19 3 -6 -1 -20 -9 -31 -8 -10 -14 -33 -14 -51 0 -18 -6 -37 -14 -41 -7 -4
-24 -37 -36 -73 -13 -36 -27 -68 -32 -71 -5 -3 -8 -10 -7 -15 4 -21 -2 -35
-11 -29 -5 3 -10 0 -10 -8 0 -8 -7 -20 -15 -27 -8 -7 -15 -21 -15 -31 0 -11
-5 -19 -11 -19 -5 0 -7 -4 -4 -10 3 -5 1 -10 -5 -10 -6 0 -9 -4 -6 -9 10 -16
-30 -19 -64 -5 -18 8 -41 14 -51 14 -10 0 -30 11 -45 25 -28 26 -37 28 -68 16
-18 -7 -18 -8 -3 -14 9 -3 17 -13 17 -22 0 -8 4 -15 10 -15 5 0 23 -14 40 -30
17 -16 35 -30 41 -30 6 0 7 -5 3 -12 -5 -8 -2 -9 10 -5 9 4 15 3 12 -1 -5 -8
19 -45 26 -40 2 2 19 -14 37 -34 18 -21 37 -36 41 -33 5 3 11 1 15 -5 10 -17
22 -11 29 13 6 22 -18 52 -35 41 -4 -2 -13 5 -20 17 -10 19 -8 25 12 40 13 10
32 19 41 19 14 0 16 5 9 23 -10 27 -4 47 15 47 16 0 36 43 32 69 -2 10 3 15
15 15 9 -1 17 4 17 12 0 8 5 14 10 14 6 0 10 8 10 18 0 11 10 24 23 30 14 7
16 11 5 9 -9 -1 -17 3 -17 8 0 6 9 10 21 10 28 0 44 50 23 71 -11 12 -10 21
11 59 13 25 26 61 28 80 2 19 7 44 11 56 l7 21 -21 -21 c-26 -26 -41 -27 -34
-1 5 18 30 33 49 29 22 -4 35 2 28 12 -3 6 -2 14 3 18 14 9 25 123 11 115 -8
-5 -9 -1 -4 12 17 40 18 55 6 69 -9 10 -9 15 -1 15 6 0 11 7 11 15 0 8 -4 15
-8 15 -4 0 -9 12 -10 27 -1 14 -10 35 -20 46 -9 11 -12 17 -6 14 7 -4 18 0 25
9 11 14 10 18 -6 30 -10 8 -16 14 -12 14 4 0 2 11 -3 24 -7 19 -4 29 14 49 12
13 21 33 20 43 -2 10 4 26 12 35 14 16 10 49 -7 49 -5 0 -9 6 -9 14 0 14 28
15 50 1 6 -3 11 1 11 9 1 9 2 22 3 29 1 6 -4 17 -10 22 -17 15 -23 62 -8 62 7
0 10 -6 8 -12 -3 -7 2 -18 11 -25 13 -10 15 -9 15 8 0 12 4 23 10 27 5 3 6 13
3 22 -4 10 -2 14 4 10 6 -4 10 6 11 25 0 17 10 39 21 50 24 22 29 47 6 28 -12
-10 -15 -10 -15 0 0 7 -7 10 -17 6 -10 -3 -3 7 15 24 17 16 32 34 32 40 0 5 7
7 14 4 12 -5 14 4 12 45 -3 33 0 49 7 44 6 -3 7 -1 3 5 -4 7 -2 17 3 24 48 57
49 60 30 79 -11 11 -16 25 -12 35 5 13 8 13 15 2 7 -9 8 -8 4 5 -3 10 -6 21
-6 23 0 3 -5 2 -11 -2 -6 -3 -15 0 -20 7 -7 11 -9 10 -9 -3z m-540 -922 c0
-18 -15 -36 -29 -35 -9 0 -11 3 -4 5 7 3 9 12 6 20 -3 8 1 14 11 14 9 0 16 -2
16 -4z m-20 -56 c0 -5 -5 -10 -11 -10 -5 0 -7 5 -4 10 3 6 8 10 11 10 2 0 4
-4 4 -10z m338 -175 c-3 -3 -9 2 -12 12 -6 14 -5 15 5 6 7 -7 10 -15 7 -18z
m-123 -385 c3 -5 1 -10 -4 -10 -6 0 -11 5 -11 10 0 6 2 10 4 10 3 0 8 -4 11
-10z m-225 -220 c0 -5 -5 -10 -11 -10 -5 0 -7 5 -4 10 3 6 8 10 11 10 2 0 4
-4 4 -10z"/>
<path d="M1460 3001 c0 -14 5 -19 15 -14 17 6 15 25 -3 31 -7 2 -12 -5 -12
-17z"/>
<path d="M1996 2923 c13 -29 7 -86 -10 -95 -24 -14 -19 -26 14 -32 17 -3 44
-9 60 -12 33 -6 39 -24 15 -44 -12 -10 -15 -10 -15 3 0 9 -9 21 -19 27 -28 14
-36 12 -21 -5 10 -12 10 -15 -3 -15 -11 0 -15 -7 -12 -22 7 -35 23 -45 39 -23
8 11 19 16 30 12 9 -4 27 -2 40 3 21 8 25 5 30 -16 8 -30 38 -62 73 -75 23 -9
30 -6 55 21 32 35 33 40 15 40 -7 0 -14 11 -15 25 -1 14 3 25 8 25 5 0 7 -7 3
-16 -4 -12 -2 -15 8 -12 8 3 13 13 13 22 -1 11 6 16 27 16 16 0 29 4 29 9 0
12 -28 41 -40 41 -4 0 -6 10 -2 22 4 16 2 19 -8 13 -9 -5 -11 -4 -6 4 8 12
-18 44 -28 34 -3 -4 -6 5 -6 18 0 25 -16 49 -33 49 -5 0 -4 -7 3 -15 7 -8 14
-38 15 -65 l3 -50 -34 0 c-22 0 -33 4 -31 13 1 6 -4 11 -12 9 -10 -2 -12 4 -7
22 5 19 1 28 -13 36 -29 15 -30 14 -42 -36 -11 -42 -14 -45 -38 -39 -14 4 -33
8 -41 9 -8 2 -16 11 -18 22 -2 15 -1 16 6 5 8 -10 12 -6 17 19 5 23 3 35 -6
41 -8 5 -9 9 -4 9 15 0 -18 20 -34 20 -9 0 -11 -6 -5 -17z m259 -194 c-9 -16
-12 -29 -8 -29 10 0 -19 -20 -29 -20 -5 0 -8 9 -8 20 0 14 -5 18 -16 13 -13
-5 -15 -2 -9 18 13 42 23 49 55 37 29 -10 29 -10 15 -39z"/>
<path d="M3135 2810 c-3 -5 -12 -7 -20 -3 -8 3 -15 0 -15 -6 0 -6 -6 -8 -14
-5 -7 3 -42 -2 -77 -11 -35 -8 -71 -17 -79 -19 -8 -2 -14 -9 -12 -15 2 -10
-11 -15 -31 -12 -4 1 -17 -15 -28 -34 -12 -19 -25 -35 -30 -35 -15 0 -10 -27
6 -34 21 -8 45 3 45 21 0 8 4 12 9 9 10 -7 25 22 22 42 -2 14 15 16 23 3 4 -5
25 1 49 13 23 13 60 23 82 24 22 2 48 4 57 5 23 4 61 45 53 57 -8 13 -32 13
-40 0z"/>
<path d="M3200 2805 c0 -9 5 -15 11 -13 6 2 11 8 11 13 0 5 -5 11 -11 13 -6 2
-11 -4 -11 -13z"/>
<path d="M2054 2693 c2 -10 -4 -24 -12 -32 -12 -13 -12 -16 4 -28 20 -14 44
-1 44 24 0 8 5 11 11 7 6 -3 15 -1 19 7 6 9 -2 17 -28 26 -20 7 -38 13 -39 13
-1 0 0 -8 1 -17z"/>
<path d="M2598 2649 c-8 -25 11 -133 25 -144 9 -6 19 -24 23 -41 11 -47 45
-114 55 -108 5 3 6 -1 4 -9 -8 -20 27 -55 61 -61 16 -3 43 -2 59 3 26 7 30 12
28 42 -1 19 1 25 4 14 10 -37 19 -35 41 9 20 43 21 45 2 41 -19 -4 -19 -2 -5
26 18 34 29 38 20 7 -5 -18 -4 -20 4 -8 21 30 13 45 -24 45 -34 0 -39 -5 -36
-32 1 -7 -3 -13 -9 -13 -5 0 -10 -12 -10 -27 -1 -54 -48 -80 -64 -36 -4 9 -13
13 -23 9 -23 -9 -32 11 -22 46 6 21 5 28 -4 25 -17 -6 -67 21 -67 36 0 8 4 7
10 -3 9 -13 11 -13 20 0 13 19 13 30 0 30 -5 0 -10 9 -10 19 0 30 -11 52 -22
45 -6 -4 -5 -10 3 -15 11 -7 10 -9 -3 -9 -23 0 -23 28 0 57 17 22 72 39 72 23
0 -5 10 -12 23 -15 32 -9 111 -49 115 -57 2 -5 10 -8 17 -8 10 0 12 -10 9 -37
-4 -32 -3 -34 5 -15 6 12 16 22 22 22 7 0 10 -3 6 -6 -3 -4 0 -13 8 -21 13
-12 18 -12 37 2 29 19 27 25 -12 41 -24 10 -30 19 -28 36 8 56 42 65 62 16 8
-18 12 -41 10 -52 -2 -11 2 -26 8 -34 9 -10 9 -15 -1 -21 -16 -10 -11 -53 7
-59 7 -2 12 0 11 5 -5 27 2 35 26 29 28 -7 33 10 14 45 -6 11 -12 30 -15 42
-2 12 -11 27 -20 34 -12 9 -14 16 -7 25 16 19 -2 56 -30 64 -26 6 -87 -19 -87
-36 0 -17 -39 -21 -62 -7 -53 34 -242 60 -250 36z m32 -39 c0 -5 -4 -10 -10
-10 -5 0 -10 5 -10 10 0 6 5 10 10 10 6 0 10 -4 10 -10z"/>
<path d="M3060 2388 c1 -17 41 -63 64 -71 9 -4 14 -12 10 -18 -3 -6 -3 -14 2
-18 16 -11 64 -79 64 -90 0 -6 5 -11 10 -11 6 0 10 -8 8 -17 -2 -14 6 -19 37
-24 22 -3 32 -7 23 -8 -9 0 -19 -9 -22 -19 -7 -22 29 -121 37 -101 3 8 6 0 6
-17 1 -17 8 -37 16 -44 8 -7 15 -19 15 -26 0 -8 5 -14 11 -14 5 0 8 -4 5 -9
-7 -10 9 -64 30 -103 8 -14 14 -33 14 -42 0 -9 4 -16 9 -16 5 0 12 -16 16 -36
3 -20 13 -43 21 -52 13 -13 17 -13 32 1 9 8 24 12 32 9 11 -3 9 1 -5 17 -13
16 -16 24 -8 29 8 5 9 13 3 22 -6 8 -10 12 -10 8 0 -5 -9 1 -21 13 -17 17 -18
23 -7 32 7 7 11 11 9 10 -2 -2 -9 7 -16 20 -7 14 -18 21 -30 19 -14 -3 -17 0
-9 10 8 12 9 21 5 52 0 5 -9 2 -18 -5 -14 -10 -13 -8 2 10 14 17 16 25 8 28
-7 3 -13 12 -14 21 -1 10 -4 7 -9 -8 -8 -24 -8 -24 -9 -2 -1 12 -6 22 -13 22
-7 0 -5 7 4 18 15 15 15 21 1 55 -13 32 -18 36 -32 25 -9 -7 -13 -9 -9 -4 3 4
1 27 -7 51 -7 24 -11 46 -8 49 3 2 -5 9 -16 16 -12 6 -21 15 -21 21 0 13 -58
69 -72 69 -7 0 -3 7 8 15 19 14 19 14 -2 15 -12 0 -21 6 -20 13 0 6 -3 12 -7
12 -5 0 -15 12 -23 27 -8 15 -26 31 -39 34 -14 3 -25 10 -25 15 0 5 -7 9 -15
9 -8 0 -15 -6 -15 -12z m378 -673 c-3 -3 -9 2 -12 12 -6 14 -5 15 5 6 7 -7 10
-15 7 -18z"/>
<path d="M4285 2380 c-3 -5 -1 -10 4 -10 6 0 11 5 11 10 0 6 -2 10 -4 10 -3 0
-8 -4 -11 -10z"/>
<path d="M4285 2321 c-3 -6 -14 -11 -24 -11 -14 0 -17 -7 -16 -32 5 -67 33
-90 56 -46 10 18 9 20 -5 15 -14 -6 -15 -3 -6 13 9 16 7 22 -5 26 -14 6 -13 8
2 19 10 8 15 16 11 20 -3 3 -9 2 -13 -4z"/>
<path d="M2990 2259 c0 -11 24 -39 34 -39 11 0 6 21 -8 36 -17 17 -26 18 -26
3z"/>
<path d="M3026 2147 c2 -34 7 -80 11 -102 3 -22 5 -52 4 -68 -1 -15 0 -41 4
-58 6 -24 9 -28 21 -18 8 6 14 18 14 26 0 8 5 11 10 8 6 -3 10 1 10 9 0 9 -4
16 -9 16 -5 0 -9 24 -9 53 0 94 -12 151 -37 174 l-23 22 4 -62z"/>
<path d="M4657 2160 c3 -11 7 -20 9 -20 2 0 4 9 4 20 0 11 -4 20 -9 20 -5 0
-7 -9 -4 -20z"/>
<path d="M1047 2149 c-9 -6 -17 -16 -17 -24 0 -8 -12 -22 -27 -32 -34 -21
-113 -104 -113 -118 0 -6 -12 -22 -27 -36 -38 -34 -83 -91 -83 -105 0 -7 -6
-14 -14 -17 -21 -8 -95 -155 -103 -202 -3 -22 -10 -45 -15 -51 -5 -7 -8 -16
-7 -20 4 -13 -22 -97 -33 -111 -12 -15 -2 -33 19 -33 9 0 13 3 10 7 -4 3 1 16
10 27 17 20 17 20 1 7 -11 -8 -18 -9 -18 -3 0 6 5 14 10 17 6 4 7 11 4 17 -5
7 -2 9 7 6 15 -6 18 5 21 65 0 15 4 27 9 27 4 0 11 9 14 20 3 11 13 20 20 20
8 0 17 5 21 12 4 6 3 8 -3 5 -6 -4 -16 -1 -22 6 -8 11 -6 13 12 13 13 -1 21 4
19 12 -1 6 2 12 7 12 4 0 7 13 5 30 -3 26 -1 29 19 27 19 -2 22 2 20 28 -3 32
13 47 39 39 15 -5 32 21 27 42 -4 19 14 44 33 44 23 0 44 19 50 46 2 10 10 18
16 17 7 -2 12 2 12 7 0 6 11 28 24 49 14 21 22 42 19 45 -4 3 -2 6 4 6 6 0 14
12 18 27 l7 28 12 -23 12 -23 19 21 c10 11 13 20 7 20 -7 0 -12 8 -12 18 0 29
-13 42 -33 31z"/>
<path d="M2753 2060 c-16 -25 -7 -47 22 -52 25 -5 55 7 55 22 0 14 -38 50 -53
50 -7 0 -18 -9 -24 -20z"/>
<path d="M3043 1755 c-1 -82 1 -105 12 -105 7 0 15 -4 17 -10 2 -5 9 -6 16 -1
12 7 11 11 -1 22 -11 11 -12 16 -2 24 7 5 16 29 20 53 6 35 4 42 -9 42 -9 0
-16 7 -16 16 0 10 6 14 15 10 17 -6 21 19 5 29 -6 4 -8 10 -6 14 3 4 -7 8 -22
9 l-27 2 -2 -105z"/>
<path d="M4036 1794 c-9 -8 -16 -12 -16 -7 -1 4 -8 -1 -18 -12 -9 -12 -25 -24
-35 -28 -9 -3 -22 -18 -29 -32 -6 -14 -14 -25 -18 -25 -15 0 -240 -234 -240
-250 0 -10 7 -21 16 -24 22 -8 36 -7 30 2 -3 5 12 14 32 22 59 21 80 39 86 75
4 19 11 35 17 35 6 0 7 5 4 10 -3 6 -2 10 4 10 5 0 13 -5 16 -10 8 -13 45 6
45 24 0 7 16 27 35 45 30 27 41 52 36 83 0 4 6 5 14 2 8 -4 15 -1 15 5 0 6 8
11 18 11 22 0 42 19 42 38 0 9 -6 12 -16 8 -12 -4 -14 -1 -9 14 8 24 -7 26
-29 4z m-60 -136 c-6 -4 -12 -1 -14 7 -2 8 -8 15 -13 15 -6 0 -8 4 -4 10 3 5
13 2 23 -8 12 -11 14 -20 8 -24z"/>
<path d="M1226 1785 c-22 -16 -20 -52 3 -64 15 -8 18 -18 14 -52 -4 -30 -1
-46 9 -53 8 -6 17 -34 20 -63 3 -30 12 -59 22 -69 14 -13 17 -27 12 -56 -4
-24 -3 -37 3 -34 5 4 22 1 38 -5 55 -21 73 -21 73 1 0 11 -6 20 -13 20 -14 0
-32 38 -42 88 -4 18 -14 36 -22 39 -12 5 -12 7 -1 14 10 7 9 9 -5 9 -14 0 -17
5 -12 20 3 11 3 25 -2 32 -4 7 -8 17 -8 23 0 5 -9 11 -20 14 -11 2 -23 8 -27
15 -13 18 -9 46 6 46 7 0 19 7 26 15 8 9 8 15 2 15 -6 0 -9 13 -7 28 3 26 1
29 -24 29 -16 0 -36 -6 -45 -12z"/>
<path d="M1144 1735 c-4 -8 -15 -15 -27 -15 -11 0 -17 -3 -14 -7 8 -7 -23 -32
-41 -33 -18 0 -102 -71 -102 -86 0 -26 36 -19 66 12 18 18 34 31 37 28 3 -3
10 3 15 13 6 10 26 25 46 33 20 7 36 19 36 26 0 6 7 15 16 18 8 3 12 10 9 16
-9 15 -35 12 -41 -5z"/>
<path d="M1293 1683 c-15 -5 -17 -23 -4 -23 5 0 11 7 15 15 3 8 4 15 3 14 -1
0 -8 -3 -14 -6z"/>
<path d="M3053 1600 c3 -11 2 -20 -2 -20 -4 0 -8 -15 -9 -34 -1 -28 3 -35 23
-40 14 -4 22 -12 19 -19 -5 -13 23 -51 88 -119 20 -22 42 -52 48 -69 8 -19 20
-29 34 -29 16 0 18 -2 7 -9 -12 -8 -12 -13 3 -35 9 -14 20 -26 25 -26 4 0 14
-11 21 -25 7 -13 20 -26 29 -28 25 -7 -39 -6 -94 1 -39 6 -53 4 -62 -8 -10
-12 -12 -12 -13 -1 0 10 -5 10 -25 -3 -14 -9 -25 -12 -25 -7 0 12 25 38 41 43
9 3 7 11 -5 29 -9 14 -13 29 -10 32 4 4 1 13 -5 21 -7 8 -10 20 -6 27 4 6 3
14 -4 18 -6 4 -14 22 -17 41 -6 28 -5 32 9 27 10 -4 17 -2 17 3 0 6 -4 10 -10
10 -5 0 -10 7 -10 15 0 30 -20 14 -21 -17 -1 -18 -3 -26 -6 -17 -2 10 -11 15
-21 12 -14 -3 -16 -13 -14 -49 2 -24 7 -44 11 -44 4 0 7 -10 8 -22 0 -13 3
-39 7 -59 l8 -36 -59 5 c-32 2 -76 9 -98 15 -22 5 -67 11 -100 11 -33 0 -63 5
-66 10 -4 5 -31 11 -60 13 -131 9 -140 10 -219 29 -14 4 -52 9 -85 11 -94 7
-217 15 -246 15 -34 1 -82 -31 -75 -49 4 -8 6 -24 6 -35 0 -20 1 -20 19 3 10
13 21 33 24 44 4 19 5 19 6 1 1 -18 2 -19 21 -1 18 16 23 17 45 5 14 -7 28
-10 32 -7 3 4 11 3 18 -3 6 -5 40 -12 76 -16 35 -3 82 -8 104 -10 22 -2 56 -6
76 -8 20 -2 45 -8 55 -14 11 -5 35 -8 54 -6 19 2 40 4 45 5 10 0 48 -8 53 -11
1 -2 7 -4 12 -5 6 -1 11 -4 13 -5 1 -1 35 -4 76 -5 55 -3 77 -8 83 -19 6 -11
23 -16 51 -16 23 0 60 -5 82 -11 26 -7 40 -8 43 -1 3 9 29 7 62 -5 8 -4 19 -5
24 -4 4 1 14 -3 21 -9 9 -8 14 -6 19 6 6 16 8 15 21 -2 9 -12 18 -15 22 -9 10
13 43 12 70 -3 11 -6 43 -13 70 -16 37 -2 56 -10 76 -30 24 -24 25 -29 13 -42
-9 -8 -12 -22 -9 -31 5 -11 3 -14 -6 -9 -19 12 -74 -44 -60 -61 6 -7 15 -10
20 -7 5 3 9 0 9 -5 0 -6 4 -11 9 -11 4 0 6 11 3 25 -2 15 0 25 7 25 6 0 11 -4
11 -10 0 -5 7 -10 15 -10 21 0 31 30 14 41 -15 9 -7 12 29 9 12 -1 22 2 22 7
0 5 16 7 35 5 19 -2 41 1 49 7 7 6 16 8 20 4 11 -11 169 -11 183 0 9 6 15 5
18 -4 3 -8 20 -14 40 -15 19 0 31 4 28 9 -3 5 5 4 17 -3 19 -10 24 -10 32 4 5
9 13 14 19 11 17 -11 9 11 -10 29 -14 13 -104 36 -143 36 -5 0 -8 4 -8 9 0 9
58 35 73 32 6 -1 11 14 8 31 0 4 7 4 16 1 13 -5 15 -2 10 11 -4 11 0 24 10 34
16 16 16 16 10 0 -9 -24 0 -22 26 5 12 13 30 21 40 19 11 -2 17 3 17 16 0 11
9 31 20 44 10 14 16 28 13 32 -3 3 3 6 14 6 12 0 24 -6 26 -12 3 -7 6 -3 6 9
1 16 6 21 16 17 13 -5 14 -2 5 20 -6 17 -6 26 0 27 6 1 14 2 19 3 5 0 12 4 16
8 4 4 12 5 19 2 7 -3 26 10 44 28 31 32 62 59 92 79 13 8 11 12 -9 30 -16 13
-27 16 -31 9 -4 -6 -16 -12 -28 -15 -24 -4 -92 -55 -92 -68 0 -5 -5 -5 -10 -2
-17 10 -140 -122 -140 -151 0 -13 5 -24 10 -24 6 0 10 -5 10 -10 0 -6 -7 -6
-19 2 -10 6 -17 17 -14 24 11 29 -18 21 -42 -11 -15 -19 -50 -51 -79 -72 -66
-48 -96 -65 -183 -106 -12 -5 -32 -7 -44 -4 -13 3 -29 1 -36 -5 -10 -8 -19 -6
-37 11 -13 12 -30 19 -38 16 -9 -4 -18 0 -21 9 -5 11 -14 14 -37 10 -19 -4
-30 -2 -30 5 0 6 -11 11 -25 11 -19 0 -25 5 -25 21 0 12 -13 35 -30 51 -16 15
-30 32 -30 36 -1 12 -38 53 -47 51 -28 -5 -34 2 -28 30 5 24 2 33 -14 43 -12
7 -21 17 -21 23 0 14 -68 75 -84 75 -15 0 -26 21 -26 51 0 10 -9 24 -20 31
-24 15 -26 43 -4 52 13 5 14 9 4 21 -7 8 -21 15 -32 15 -15 0 -19 -5 -15 -20z
m1177 -184 c-7 -7 -14 -6 -21 1 -9 9 -7 12 9 10 14 -1 18 -5 12 -11z m-20 -36
c0 -5 -4 -10 -10 -10 -5 0 -10 5 -10 10 0 6 5 10 10 10 6 0 10 -4 10 -10z"/>
<path d="M3479 1599 c-4 -26 -1 -38 20 -86 21 -48 25 -51 62 -55 22 -2 45 0
52 4 11 7 2 12 -16 9 -5 -1 -6 7 -2 17 4 16 -1 21 -26 26 -26 5 -30 10 -28 33
1 16 -1 35 -5 44 -7 17 -55 23 -57 8z"/>
<path d="M2728 1595 c-8 -9 4 -64 16 -68 6 -2 22 0 36 5 22 8 23 11 10 21 -9
7 -14 20 -12 30 3 12 -3 17 -21 17 -13 0 -26 -2 -29 -5z"/>
<path d="M1455 1480 c-55 -34 -60 -42 -39 -57 23 -17 51 -17 61 1 4 8 17 15
27 17 11 2 23 15 26 29 6 23 4 26 -19 27 -14 1 -39 -7 -56 -17z"/>
<path d="M3056 1454 c-9 -25 -7 -56 4 -49 6 3 7 -1 4 -9 -9 -23 13 -20 26 3 7
13 7 22 0 26 -5 3 -10 15 -10 26 0 23 -15 25 -24 3z"/>
<path d="M3570 1430 c-7 -13 -6 -20 6 -24 43 -16 68 12 28 31 -20 9 -26 8 -34
-7z"/>
<path d="M1316 1365 c-3 -9 0 -15 9 -15 9 0 12 6 9 15 -4 8 -7 15 -9 15 -2 0
-5 -7 -9 -15z"/>
<path d="M584 1324 c-15 -82 26 -220 68 -232 10 -2 15 -8 12 -13 -3 -5 16 -19
43 -31 64 -29 220 -32 273 -5 73 37 80 42 80 54 0 6 14 14 30 18 17 4 30 11
30 15 0 5 18 20 40 32 22 13 40 29 40 36 0 7 8 16 18 19 32 12 67 58 70 91 5
48 -14 41 -88 -36 -36 -37 -86 -83 -112 -100 -27 -18 -48 -38 -48 -43 0 -6 -4
-8 -9 -4 -6 3 -14 -2 -19 -11 -5 -9 -12 -15 -15 -15 -4 1 -24 -6 -45 -16 -45
-20 -157 -22 -204 -2 -35 14 -88 65 -88 85 0 6 -6 17 -14 24 -10 7 -12 18 -7
32 11 30 1 68 -17 68 -12 0 -13 3 -4 12 18 18 15 36 -8 48 -17 9 -20 6 -26
-26z"/>
<path d="M2155 1301 c-3 -5 -1 -12 5 -16 5 -3 10 1 10 9 0 18 -6 21 -15 7z"/>
<path d="M2048 1206 c-10 -7 -18 -18 -18 -25 0 -6 -4 -11 -9 -11 -6 0 -21 -10
-35 -23 -18 -17 -22 -27 -15 -40 9 -15 13 -14 49 11 22 15 39 35 40 45 0 10 4
16 9 13 5 -3 9 6 9 19 0 28 -6 30 -30 11z"/>
</g>
</svg>
